<svg width="22" height="22" viewBox="0 0 22 22" fill="none" xmlns="http://www.w3.org/2000/svg">
<path d="M12.6831 11.0075L21.4585 2.22966C21.9141 1.77397 21.9141 1.03049 21.4585 0.550825C21.003 0.0711597 20.2597 0.095143 19.7802 0.550825L11.0047 9.32871L2.22927 0.550825C1.77372 0.095143 1.03044 0.095143 0.550911 0.550825C0.0713786 1.00651 0.0953552 1.74999 0.550911 2.22966L9.32636 11.0075L0.550911 19.7854C0.0953552 20.2411 0.0953552 20.9846 0.550911 21.4642C0.790677 21.7041 1.0784 21.8 1.39009 21.8C1.70179 21.8 1.98951 21.6801 2.22927 21.4642L11.0047 12.6864L19.7802 21.4642C20.0199 21.7041 20.3076 21.8 20.6193 21.8C20.931 21.8 21.2188 21.6801 21.4585 21.4642C21.9141 21.0086 21.9141 20.2651 21.4585 19.7854L12.6831 11.0075Z" fill="#E0E0E0"/>
</svg>
